ISO-10303-21;
HEADER;
/* Generated by software containing ST-Developer
 * from STEP Tools, Inc. (www.steptools.com) 
 */

FILE_DESCRIPTION(
/* description */ (''),
/* implementation_level */ '2;1');

FILE_NAME(
/* name */ 'Support.stp',
/* time_stamp */ '2025-11-07T18:12:19-08:00',
/* author */ ('alexi'),
/* organization */ (''),
/* preprocessor_version */ 'ST-DEVELOPER v19.2',
/* originating_system */ 'Autodesk Inventor 2024',
/* authorisation */ '');

FILE_SCHEMA (('AUTOMOTIVE_DESIGN { 1 0 10303 214 3 1 1 }'));
ENDSEC;

DATA;
#10=MECHANICAL_DESIGN_GEOMETRIC_PRESENTATION_REPRESENTATION('',(#13),#634);
#11=SHAPE_REPRESENTATION_RELATIONSHIP('SRR','None',#641,#12);
#12=ADVANCED_BREP_SHAPE_REPRESENTATION('',(#14),#633);
#13=STYLED_ITEM('',(#650),#14);
#14=MANIFOLD_SOLID_BREP('\X2\C194B9ACB4DC\X0\1',#377);
#15=FACE_BOUND('',#67,.T.);
#16=FACE_BOUND('',#68,.T.);
#17=FACE_BOUND('',#71,.T.);
#18=FACE_BOUND('',#72,.T.);
#19=FACE_BOUND('',#73,.T.);
#20=FACE_BOUND('',#74,.T.);
#21=FACE_BOUND('',#75,.T.);
#22=FACE_BOUND('',#82,.T.);
#23=FACE_BOUND('',#83,.T.);
#24=FACE_BOUND('',#88,.T.);
#25=FACE_BOUND('',#89,.T.);
#26=FACE_BOUND('',#90,.T.);
#27=FACE_BOUND('',#91,.T.);
#28=PLANE('',#418);
#29=PLANE('',#419);
#30=PLANE('',#420);
#31=PLANE('',#421);
#32=PLANE('',#422);
#33=PLANE('',#423);
#34=PLANE('',#424);
#35=PLANE('',#425);
#36=PLANE('',#426);
#37=PLANE('',#427);
#38=PLANE('',#428);
#39=PLANE('',#429);
#40=PLANE('',#430);
#41=FACE_OUTER_BOUND('',#60,.T.);
#42=FACE_OUTER_BOUND('',#61,.T.);
#43=FACE_OUTER_BOUND('',#62,.T.);
#44=FACE_OUTER_BOUND('',#63,.T.);
#45=FACE_OUTER_BOUND('',#64,.T.);
#46=FACE_OUTER_BOUND('',#65,.T.);
#47=FACE_OUTER_BOUND('',#66,.T.);
#48=FACE_OUTER_BOUND('',#69,.T.);
#49=FACE_OUTER_BOUND('',#70,.T.);
#50=FACE_OUTER_BOUND('',#76,.T.);
#51=FACE_OUTER_BOUND('',#77,.T.);
#52=FACE_OUTER_BOUND('',#78,.T.);
#53=FACE_OUTER_BOUND('',#79,.T.);
#54=FACE_OUTER_BOUND('',#80,.T.);
#55=FACE_OUTER_BOUND('',#81,.T.);
#56=FACE_OUTER_BOUND('',#84,.T.);
#57=FACE_OUTER_BOUND('',#85,.T.);
#58=FACE_OUTER_BOUND('',#86,.T.);
#59=FACE_OUTER_BOUND('',#87,.T.);
#60=EDGE_LOOP('',(#256,#257,#258,#259));
#61=EDGE_LOOP('',(#260,#261,#262,#263));
#62=EDGE_LOOP('',(#264,#265,#266,#267));
#63=EDGE_LOOP('',(#268,#269,#270,#271));
#64=EDGE_LOOP('',(#272,#273,#274,#275));
#65=EDGE_LOOP('',(#276,#277,#278,#279));
#66=EDGE_LOOP('',(#280,#281,#282,#283));
#67=EDGE_LOOP('',(#284));
#68=EDGE_LOOP('',(#285));
#69=EDGE_LOOP('',(#286,#287,#288,#289));
#70=EDGE_LOOP('',(#290,#291,#292,#293));
#71=EDGE_LOOP('',(#294));
#72=EDGE_LOOP('',(#295));
#73=EDGE_LOOP('',(#296));
#74=EDGE_LOOP('',(#297));
#75=EDGE_LOOP('',(#298,#299,#300,#301));
#76=EDGE_LOOP('',(#302,#303,#304,#305));
#77=EDGE_LOOP('',(#306,#307,#308,#309));
#78=EDGE_LOOP('',(#310,#311,#312,#313));
#79=EDGE_LOOP('',(#314,#315,#316,#317));
#80=EDGE_LOOP('',(#318,#319,#320,#321));
#81=EDGE_LOOP('',(#322,#323,#324,#325));
#82=EDGE_LOOP('',(#326));
#83=EDGE_LOOP('',(#327));
#84=EDGE_LOOP('',(#328,#329,#330,#331,#332,#333));
#85=EDGE_LOOP('',(#334,#335,#336,#337));
#86=EDGE_LOOP('',(#338,#339,#340,#341,#342,#343));
#87=EDGE_LOOP('',(#344,#345,#346,#347));
#88=EDGE_LOOP('',(#348));
#89=EDGE_LOOP('',(#349));
#90=EDGE_LOOP('',(#350));
#91=EDGE_LOOP('',(#351));
#92=LINE('',#536,#128);
#93=LINE('',#542,#129);
#94=LINE('',#548,#130);
#95=LINE('',#554,#131);
#96=LINE('',#560,#132);
#97=LINE('',#566,#133);
#98=LINE('',#571,#134);
#99=LINE('',#573,#135);
#100=LINE('',#575,#136);
#101=LINE('',#576,#137);
#102=LINE('',#579,#138);
#103=LINE('',#581,#139);
#104=LINE('',#582,#140);
#105=LINE('',#585,#141);
#106=LINE('',#587,#142);
#107=LINE('',#588,#143);
#108=LINE('',#591,#144);
#109=LINE('',#593,#145);
#110=LINE('',#595,#146);
#111=LINE('',#596,#147);
#112=LINE('',#599,#148);
#113=LINE('',#601,#149);
#114=LINE('',#602,#150);
#115=LINE('',#605,#151);
#116=LINE('',#606,#152);
#117=LINE('',#609,#153);
#118=LINE('',#610,#154);
#119=LINE('',#612,#155);
#120=LINE('',#616,#156);
#121=LINE('',#618,#157);
#122=LINE('',#619,#158);
#123=LINE('',#622,#159);
#124=LINE('',#623,#160);
#125=LINE('',#626,#161);
#126=LINE('',#627,#162);
#127=LINE('',#629,#163);
#128=VECTOR('',#437,0.7835);
#129=VECTOR('',#444,0.7835);
#130=VECTOR('',#451,0.7835);
#131=VECTOR('',#458,0.7835);
#132=VECTOR('',#465,1.7);
#133=VECTOR('',#472,1.7);
#134=VECTOR('',#477,10.);
#135=VECTOR('',#478,10.);
#136=VECTOR('',#479,10.);
#137=VECTOR('',#480,10.);
#138=VECTOR('',#483,10.);
#139=VECTOR('',#484,10.);
#140=VECTOR('',#485,10.);
#141=VECTOR('',#488,10.);
#142=VECTOR('',#489,10.);
#143=VECTOR('',#490,10.);
#144=VECTOR('',#491,10.);
#145=VECTOR('',#492,10.);
#146=VECTOR('',#493,10.);
#147=VECTOR('',#494,10.);
#148=VECTOR('',#497,10.);
#149=VECTOR('',#498,10.);
#150=VECTOR('',#499,10.);
#151=VECTOR('',#502,10.);
#152=VECTOR('',#503,10.);
#153=VECTOR('',#506,10.);
#154=VECTOR('',#507,10.);
#155=VECTOR('',#510,10.);
#156=VECTOR('',#515,10.);
#157=VECTOR('',#516,10.);
#158=VECTOR('',#517,10.);
#159=VECTOR('',#520,10.);
#160=VECTOR('',#521,10.);
#161=VECTOR('',#524,10.);
#162=VECTOR('',#525,10.);
#163=VECTOR('',#528,10.);
#164=CIRCLE('',#401,0.7835);
#165=CIRCLE('',#402,0.783500000000001);
#166=CIRCLE('',#404,0.7835);
#167=CIRCLE('',#405,0.783500000000001);
#168=CIRCLE('',#407,0.7835);
#169=CIRCLE('',#408,0.783500000000001);
#170=CIRCLE('',#410,0.7835);
#171=CIRCLE('',#411,0.783500000000001);
#172=CIRCLE('',#413,1.7);
#173=CIRCLE('',#414,1.70000000000002);
#174=CIRCLE('',#416,1.7);
#175=CIRCLE('',#417,1.70000000000002);
#176=VERTEX_POINT('',#533);
#177=VERTEX_POINT('',#535);
#178=VERTEX_POINT('',#539);
#179=VERTEX_POINT('',#541);
#180=VERTEX_POINT('',#545);
#181=VERTEX_POINT('',#547);
#182=VERTEX_POINT('',#551);
#183=VERTEX_POINT('',#553);
#184=VERTEX_POINT('',#557);
#185=VERTEX_POINT('',#559);
#186=VERTEX_POINT('',#563);
#187=VERTEX_POINT('',#565);
#188=VERTEX_POINT('',#569);
#189=VERTEX_POINT('',#570);
#190=VERTEX_POINT('',#572);
#191=VERTEX_POINT('',#574);
#192=VERTEX_POINT('',#578);
#193=VERTEX_POINT('',#580);
#194=VERTEX_POINT('',#584);
#195=VERTEX_POINT('',#586);
#196=VERTEX_POINT('',#589);
#197=VERTEX_POINT('',#590);
#198=VERTEX_POINT('',#592);
#199=VERTEX_POINT('',#594);
#200=VERTEX_POINT('',#598);
#201=VERTEX_POINT('',#600);
#202=VERTEX_POINT('',#604);
#203=VERTEX_POINT('',#608);
#204=VERTEX_POINT('',#615);
#205=VERTEX_POINT('',#617);
#206=VERTEX_POINT('',#621);
#207=VERTEX_POINT('',#625);
#208=EDGE_CURVE('',#176,#176,#164,.T.);
#209=EDGE_CURVE('',#176,#177,#92,.T.);
#210=EDGE_CURVE('',#177,#177,#165,.T.);
#211=EDGE_CURVE('',#178,#178,#166,.T.);
#212=EDGE_CURVE('',#178,#179,#93,.T.);
#213=EDGE_CURVE('',#179,#179,#167,.T.);
#214=EDGE_CURVE('',#180,#180,#168,.T.);
#215=EDGE_CURVE('',#180,#181,#94,.T.);
#216=EDGE_CURVE('',#181,#181,#169,.T.);
#217=EDGE_CURVE('',#182,#182,#170,.T.);
#218=EDGE_CURVE('',#182,#183,#95,.T.);
#219=EDGE_CURVE('',#183,#183,#171,.T.);
#220=EDGE_CURVE('',#184,#184,#172,.T.);
#221=EDGE_CURVE('',#184,#185,#96,.T.);
#222=EDGE_CURVE('',#185,#185,#173,.T.);
#223=EDGE_CURVE('',#186,#186,#174,.T.);
#224=EDGE_CURVE('',#186,#187,#97,.T.);
#225=EDGE_CURVE('',#187,#187,#175,.T.);
#226=EDGE_CURVE('',#188,#189,#98,.T.);
#227=EDGE_CURVE('',#188,#190,#99,.T.);
#228=EDGE_CURVE('',#191,#190,#100,.T.);
#229=EDGE_CURVE('',#189,#191,#101,.T.);
#230=EDGE_CURVE('',#192,#191,#102,.T.);
#231=EDGE_CURVE('',#190,#193,#103,.T.);
#232=EDGE_CURVE('',#193,#192,#104,.T.);
#233=EDGE_CURVE('',#194,#189,#105,.T.);
#234=EDGE_CURVE('',#195,#194,#106,.T.);
#235=EDGE_CURVE('',#188,#195,#107,.T.);
#236=EDGE_CURVE('',#196,#197,#108,.T.);
#237=EDGE_CURVE('',#197,#198,#109,.T.);
#238=EDGE_CURVE('',#198,#199,#110,.T.);
#239=EDGE_CURVE('',#199,#196,#111,.T.);
#240=EDGE_CURVE('',#196,#200,#112,.T.);
#241=EDGE_CURVE('',#200,#201,#113,.T.);
#242=EDGE_CURVE('',#197,#201,#114,.T.);
#243=EDGE_CURVE('',#199,#202,#115,.T.);
#244=EDGE_CURVE('',#202,#200,#116,.T.);
#245=EDGE_CURVE('',#198,#203,#117,.T.);
#246=EDGE_CURVE('',#203,#202,#118,.T.);
#247=EDGE_CURVE('',#201,#203,#119,.T.);
#248=EDGE_CURVE('',#204,#193,#120,.T.);
#249=EDGE_CURVE('',#205,#204,#121,.T.);
#250=EDGE_CURVE('',#192,#205,#122,.T.);
#251=EDGE_CURVE('',#206,#205,#123,.T.);
#252=EDGE_CURVE('',#194,#206,#124,.T.);
#253=EDGE_CURVE('',#207,#206,#125,.T.);
#254=EDGE_CURVE('',#195,#207,#126,.T.);
#255=EDGE_CURVE('',#204,#207,#127,.T.);
#256=ORIENTED_EDGE('',*,*,#208,.F.);
#257=ORIENTED_EDGE('',*,*,#209,.T.);
#258=ORIENTED_EDGE('',*,*,#210,.F.);
#259=ORIENTED_EDGE('',*,*,#209,.F.);
#260=ORIENTED_EDGE('',*,*,#211,.F.);
#261=ORIENTED_EDGE('',*,*,#212,.T.);
#262=ORIENTED_EDGE('',*,*,#213,.F.);
#263=ORIENTED_EDGE('',*,*,#212,.F.);
#264=ORIENTED_EDGE('',*,*,#214,.F.);
#265=ORIENTED_EDGE('',*,*,#215,.T.);
#266=ORIENTED_EDGE('',*,*,#216,.F.);
#267=ORIENTED_EDGE('',*,*,#215,.F.);
#268=ORIENTED_EDGE('',*,*,#217,.F.);
#269=ORIENTED_EDGE('',*,*,#218,.T.);
#270=ORIENTED_EDGE('',*,*,#219,.F.);
#271=ORIENTED_EDGE('',*,*,#218,.F.);
#272=ORIENTED_EDGE('',*,*,#220,.F.);
#273=ORIENTED_EDGE('',*,*,#221,.T.);
#274=ORIENTED_EDGE('',*,*,#222,.F.);
#275=ORIENTED_EDGE('',*,*,#221,.F.);
#276=ORIENTED_EDGE('',*,*,#223,.F.);
#277=ORIENTED_EDGE('',*,*,#224,.T.);
#278=ORIENTED_EDGE('',*,*,#225,.F.);
#279=ORIENTED_EDGE('',*,*,#224,.F.);
#280=ORIENTED_EDGE('',*,*,#226,.F.);
#281=ORIENTED_EDGE('',*,*,#227,.T.);
#282=ORIENTED_EDGE('',*,*,#228,.F.);
#283=ORIENTED_EDGE('',*,*,#229,.F.);
#284=ORIENTED_EDGE('',*,*,#222,.T.);
#285=ORIENTED_EDGE('',*,*,#225,.T.);
#286=ORIENTED_EDGE('',*,*,#230,.T.);
#287=ORIENTED_EDGE('',*,*,#228,.T.);
#288=ORIENTED_EDGE('',*,*,#231,.T.);
#289=ORIENTED_EDGE('',*,*,#232,.T.);
#290=ORIENTED_EDGE('',*,*,#226,.T.);
#291=ORIENTED_EDGE('',*,*,#233,.F.);
#292=ORIENTED_EDGE('',*,*,#234,.F.);
#293=ORIENTED_EDGE('',*,*,#235,.F.);
#294=ORIENTED_EDGE('',*,*,#208,.T.);
#295=ORIENTED_EDGE('',*,*,#211,.T.);
#296=ORIENTED_EDGE('',*,*,#214,.T.);
#297=ORIENTED_EDGE('',*,*,#217,.T.);
#298=ORIENTED_EDGE('',*,*,#236,.T.);
#299=ORIENTED_EDGE('',*,*,#237,.T.);
#300=ORIENTED_EDGE('',*,*,#238,.T.);
#301=ORIENTED_EDGE('',*,*,#239,.T.);
#302=ORIENTED_EDGE('',*,*,#236,.F.);
#303=ORIENTED_EDGE('',*,*,#240,.T.);
#304=ORIENTED_EDGE('',*,*,#241,.T.);
#305=ORIENTED_EDGE('',*,*,#242,.F.);
#306=ORIENTED_EDGE('',*,*,#239,.F.);
#307=ORIENTED_EDGE('',*,*,#243,.T.);
#308=ORIENTED_EDGE('',*,*,#244,.T.);
#309=ORIENTED_EDGE('',*,*,#240,.F.);
#310=ORIENTED_EDGE('',*,*,#238,.F.);
#311=ORIENTED_EDGE('',*,*,#245,.T.);
#312=ORIENTED_EDGE('',*,*,#246,.T.);
#313=ORIENTED_EDGE('',*,*,#243,.F.);
#314=ORIENTED_EDGE('',*,*,#237,.F.);
#315=ORIENTED_EDGE('',*,*,#242,.T.);
#316=ORIENTED_EDGE('',*,*,#247,.T.);
#317=ORIENTED_EDGE('',*,*,#245,.F.);
#318=ORIENTED_EDGE('',*,*,#247,.F.);
#319=ORIENTED_EDGE('',*,*,#241,.F.);
#320=ORIENTED_EDGE('',*,*,#244,.F.);
#321=ORIENTED_EDGE('',*,*,#246,.F.);
#322=ORIENTED_EDGE('',*,*,#248,.F.);
#323=ORIENTED_EDGE('',*,*,#249,.F.);
#324=ORIENTED_EDGE('',*,*,#250,.F.);
#325=ORIENTED_EDGE('',*,*,#232,.F.);
#326=ORIENTED_EDGE('',*,*,#220,.T.);
#327=ORIENTED_EDGE('',*,*,#223,.T.);
#328=ORIENTED_EDGE('',*,*,#233,.T.);
#329=ORIENTED_EDGE('',*,*,#229,.T.);
#330=ORIENTED_EDGE('',*,*,#230,.F.);
#331=ORIENTED_EDGE('',*,*,#250,.T.);
#332=ORIENTED_EDGE('',*,*,#251,.F.);
#333=ORIENTED_EDGE('',*,*,#252,.F.);
#334=ORIENTED_EDGE('',*,*,#234,.T.);
#335=ORIENTED_EDGE('',*,*,#252,.T.);
#336=ORIENTED_EDGE('',*,*,#253,.F.);
#337=ORIENTED_EDGE('',*,*,#254,.F.);
#338=ORIENTED_EDGE('',*,*,#235,.T.);
#339=ORIENTED_EDGE('',*,*,#254,.T.);
#340=ORIENTED_EDGE('',*,*,#255,.F.);
#341=ORIENTED_EDGE('',*,*,#248,.T.);
#342=ORIENTED_EDGE('',*,*,#231,.F.);
#343=ORIENTED_EDGE('',*,*,#227,.F.);
#344=ORIENTED_EDGE('',*,*,#255,.T.);
#345=ORIENTED_EDGE('',*,*,#253,.T.);
#346=ORIENTED_EDGE('',*,*,#251,.T.);
#347=ORIENTED_EDGE('',*,*,#249,.T.);
#348=ORIENTED_EDGE('',*,*,#210,.T.);
#349=ORIENTED_EDGE('',*,*,#213,.T.);
#350=ORIENTED_EDGE('',*,*,#216,.T.);
#351=ORIENTED_EDGE('',*,*,#219,.T.);
#352=CYLINDRICAL_SURFACE('',#400,0.7835);
#353=CYLINDRICAL_SURFACE('',#403,0.7835);
#354=CYLINDRICAL_SURFACE('',#406,0.7835);
#355=CYLINDRICAL_SURFACE('',#409,0.7835);
#356=CYLINDRICAL_SURFACE('',#412,1.7);
#357=CYLINDRICAL_SURFACE('',#415,1.7);
#358=ADVANCED_FACE('',(#41),#352,.F.);
#359=ADVANCED_FACE('',(#42),#353,.F.);
#360=ADVANCED_FACE('',(#43),#354,.F.);
#361=ADVANCED_FACE('',(#44),#355,.F.);
#362=ADVANCED_FACE('',(#45),#356,.F.);
#363=ADVANCED_FACE('',(#46),#357,.F.);
#364=ADVANCED_FACE('',(#47,#15,#16),#28,.T.);
#365=ADVANCED_FACE('',(#48),#29,.T.);
#366=ADVANCED_FACE('',(#49,#17,#18,#19,#20,#21),#30,.F.);
#367=ADVANCED_FACE('',(#50),#31,.F.);
#368=ADVANCED_FACE('',(#51),#32,.F.);
#369=ADVANCED_FACE('',(#52),#33,.F.);
#370=ADVANCED_FACE('',(#53),#34,.F.);
#371=ADVANCED_FACE('',(#54),#35,.F.);
#372=ADVANCED_FACE('',(#55,#22,#23),#36,.T.);
#373=ADVANCED_FACE('',(#56),#37,.T.);
#374=ADVANCED_FACE('',(#57),#38,.T.);
#375=ADVANCED_FACE('',(#58),#39,.T.);
#376=ADVANCED_FACE('',(#59,#24,#25,#26,#27),#40,.T.);
#377=CLOSED_SHELL('',(#358,#359,#360,#361,#362,#363,#364,#365,#366,#367,
#368,#369,#370,#371,#372,#373,#374,#375,#376));
#378=DERIVED_UNIT_ELEMENT(#381,1.);
#379=DERIVED_UNIT_ELEMENT(#636,-3.);
#380=DIMENSIONAL_EXPONENTS(0.,1.,0.,0.,0.,0.,0.);
#381=(
CONVERSION_BASED_UNIT('gram',#383)
MASS_UNIT()
NAMED_UNIT(#380)
);
#382=(
MASS_UNIT()
NAMED_UNIT(*)
SI_UNIT(.KILO.,.GRAM.)
);
#383=MASS_MEASURE_WITH_UNIT(MASS_MEASURE(0.001),#382);
#384=DERIVED_UNIT((#378,#379));
#385=MEASURE_REPRESENTATION_ITEM('density measure',
POSITIVE_RATIO_MEASURE(1.),#384);
#386=PROPERTY_DEFINITION_REPRESENTATION(#391,#388);
#387=PROPERTY_DEFINITION_REPRESENTATION(#392,#389);
#388=REPRESENTATION('material name',(#390),#633);
#389=REPRESENTATION('density',(#385),#633);
#390=DESCRIPTIVE_REPRESENTATION_ITEM('\X2\C77CBC18\X0\','\X2\C77CBC18\X0\');
#391=PROPERTY_DEFINITION('material property','material name',#643);
#392=PROPERTY_DEFINITION('material property','density of part',#643);
#393=DATE_TIME_ROLE('creation_date');
#394=APPLIED_DATE_AND_TIME_ASSIGNMENT(#395,#393,(#643));
#395=DATE_AND_TIME(#396,#397);
#396=CALENDAR_DATE(2025,7,11);
#397=LOCAL_TIME(0,0,0.,#398);
#398=COORDINATED_UNIVERSAL_TIME_OFFSET(0,0,.BEHIND.);
#399=AXIS2_PLACEMENT_3D('',#531,#431,#432);
#400=AXIS2_PLACEMENT_3D('',#532,#433,#434);
#401=AXIS2_PLACEMENT_3D('',#534,#435,#436);
#402=AXIS2_PLACEMENT_3D('',#537,#438,#439);
#403=AXIS2_PLACEMENT_3D('',#538,#440,#441);
#404=AXIS2_PLACEMENT_3D('',#540,#442,#443);
#405=AXIS2_PLACEMENT_3D('',#543,#445,#446);
#406=AXIS2_PLACEMENT_3D('',#544,#447,#448);
#407=AXIS2_PLACEMENT_3D('',#546,#449,#450);
#408=AXIS2_PLACEMENT_3D('',#549,#452,#453);
#409=AXIS2_PLACEMENT_3D('',#550,#454,#455);
#410=AXIS2_PLACEMENT_3D('',#552,#456,#457);
#411=AXIS2_PLACEMENT_3D('',#555,#459,#460);
#412=AXIS2_PLACEMENT_3D('',#556,#461,#462);
#413=AXIS2_PLACEMENT_3D('',#558,#463,#464);
#414=AXIS2_PLACEMENT_3D('',#561,#466,#467);
#415=AXIS2_PLACEMENT_3D('',#562,#468,#469);
#416=AXIS2_PLACEMENT_3D('',#564,#470,#471);
#417=AXIS2_PLACEMENT_3D('',#567,#473,#474);
#418=AXIS2_PLACEMENT_3D('',#568,#475,#476);
#419=AXIS2_PLACEMENT_3D('',#577,#481,#482);
#420=AXIS2_PLACEMENT_3D('',#583,#486,#487);
#421=AXIS2_PLACEMENT_3D('',#597,#495,#496);
#422=AXIS2_PLACEMENT_3D('',#603,#500,#501);
#423=AXIS2_PLACEMENT_3D('',#607,#504,#505);
#424=AXIS2_PLACEMENT_3D('',#611,#508,#509);
#425=AXIS2_PLACEMENT_3D('',#613,#511,#512);
#426=AXIS2_PLACEMENT_3D('',#614,#513,#514);
#427=AXIS2_PLACEMENT_3D('',#620,#518,#519);
#428=AXIS2_PLACEMENT_3D('',#624,#522,#523);
#429=AXIS2_PLACEMENT_3D('',#628,#526,#527);
#430=AXIS2_PLACEMENT_3D('',#630,#529,#530);
#431=DIRECTION('axis',(0.,0.,1.));
#432=DIRECTION('refdir',(1.,0.,0.));
#433=DIRECTION('center_axis',(0.,0.,-1.));
#434=DIRECTION('ref_axis',(-1.,0.,0.));
#435=DIRECTION('center_axis',(0.,0.,1.));
#436=DIRECTION('ref_axis',(-1.,0.,0.));
#437=DIRECTION('',(0.,0.,1.));
#438=DIRECTION('center_axis',(0.,0.,-1.));
#439=DIRECTION('ref_axis',(-1.,0.,0.));
#440=DIRECTION('center_axis',(0.,0.,-1.));
#441=DIRECTION('ref_axis',(-1.,0.,0.));
#442=DIRECTION('center_axis',(0.,0.,1.));
#443=DIRECTION('ref_axis',(-1.,0.,0.));
#444=DIRECTION('',(0.,0.,1.));
#445=DIRECTION('center_axis',(0.,0.,-1.));
#446=DIRECTION('ref_axis',(-1.,0.,0.));
#447=DIRECTION('center_axis',(0.,0.,-1.));
#448=DIRECTION('ref_axis',(-1.,0.,0.));
#449=DIRECTION('center_axis',(0.,0.,1.));
#450=DIRECTION('ref_axis',(-1.,0.,0.));
#451=DIRECTION('',(0.,0.,1.));
#452=DIRECTION('center_axis',(0.,0.,-1.));
#453=DIRECTION('ref_axis',(-1.,0.,0.));
#454=DIRECTION('center_axis',(0.,0.,-1.));
#455=DIRECTION('ref_axis',(-1.,0.,0.));
#456=DIRECTION('center_axis',(0.,0.,1.));
#457=DIRECTION('ref_axis',(-1.,0.,0.));
#458=DIRECTION('',(0.,0.,1.));
#459=DIRECTION('center_axis',(0.,0.,-1.));
#460=DIRECTION('ref_axis',(-1.,0.,0.));
#461=DIRECTION('center_axis',(-1.11022302462516E-16,1.,0.));
#462=DIRECTION('ref_axis',(1.,1.11022302462516E-16,0.));
#463=DIRECTION('center_axis',(1.11022302462516E-16,-1.,0.));
#464=DIRECTION('ref_axis',(1.,1.11022302462516E-16,0.));
#465=DIRECTION('',(1.11022302462516E-16,-1.,0.));
#466=DIRECTION('center_axis',(-4.44089209850063E-16,1.,0.));
#467=DIRECTION('ref_axis',(1.,1.11022302462516E-16,0.));
#468=DIRECTION('center_axis',(-1.11022302462516E-16,1.,0.));
#469=DIRECTION('ref_axis',(1.,1.11022302462516E-16,0.));
#470=DIRECTION('center_axis',(1.11022302462516E-16,-1.,0.));
#471=DIRECTION('ref_axis',(1.,1.11022302462516E-16,0.));
#472=DIRECTION('',(1.11022302462516E-16,-1.,0.));
#473=DIRECTION('center_axis',(-4.44089209850063E-16,1.,0.));
#474=DIRECTION('ref_axis',(1.,1.11022302462516E-16,0.));
#475=DIRECTION('center_axis',(4.44089209850063E-16,-1.,0.));
#476=DIRECTION('ref_axis',(-1.,-4.44089209850063E-16,0.));
#477=DIRECTION('',(1.,4.44089209850063E-16,0.));
#478=DIRECTION('',(0.,0.,-1.));
#479=DIRECTION('',(-1.,-4.44089209850063E-16,0.));
#480=DIRECTION('',(0.,0.,-1.));
#481=DIRECTION('center_axis',(0.,0.,-1.));
#482=DIRECTION('ref_axis',(-1.,0.,0.));
#483=DIRECTION('',(4.36809058868914E-16,-1.,0.));
#484=DIRECTION('',(-3.27606794151686E-16,1.,0.));
#485=DIRECTION('',(1.,1.11022302462516E-16,0.));
#486=DIRECTION('center_axis',(0.,0.,1.));
#487=DIRECTION('ref_axis',(1.,0.,0.));
#488=DIRECTION('',(-4.36809058868914E-16,1.,0.));
#489=DIRECTION('',(1.,2.22044604925031E-16,0.));
#490=DIRECTION('',(3.27606794151686E-16,-1.,0.));
#491=DIRECTION('',(1.45364716808531E-16,-1.,0.));
#492=DIRECTION('',(1.,7.16272919113004E-17,0.));
#493=DIRECTION('',(7.26823584042656E-17,1.,0.));
#494=DIRECTION('',(-1.,0.,0.));
#495=DIRECTION('center_axis',(-1.,-1.45364716808531E-16,0.));
#496=DIRECTION('ref_axis',(1.45364716808531E-16,-1.,0.));
#497=DIRECTION('',(0.,0.,1.));
#498=DIRECTION('',(1.45364716808531E-16,-1.,0.));
#499=DIRECTION('',(0.,0.,1.));
#500=DIRECTION('center_axis',(0.,1.,0.));
#501=DIRECTION('ref_axis',(-1.,0.,0.));
#502=DIRECTION('',(0.,0.,1.));
#503=DIRECTION('',(-1.,0.,0.));
#504=DIRECTION('center_axis',(1.,-7.26823584042656E-17,0.));
#505=DIRECTION('ref_axis',(7.26823584042656E-17,1.,0.));
#506=DIRECTION('',(0.,0.,1.));
#507=DIRECTION('',(7.26823584042656E-17,1.,0.));
#508=DIRECTION('center_axis',(7.16272919113004E-17,-1.,0.));
#509=DIRECTION('ref_axis',(1.,7.16272919113004E-17,0.));
#510=DIRECTION('',(1.,7.16272919113004E-17,0.));
#511=DIRECTION('center_axis',(0.,0.,1.));
#512=DIRECTION('ref_axis',(1.,0.,0.));
#513=DIRECTION('center_axis',(-1.11022302462516E-16,1.,0.));
#514=DIRECTION('ref_axis',(-1.,-1.11022302462516E-16,0.));
#515=DIRECTION('',(0.,0.,-1.));
#516=DIRECTION('',(-1.,-1.11022302462516E-16,0.));
#517=DIRECTION('',(0.,0.,1.));
#518=DIRECTION('center_axis',(1.,4.36809058868914E-16,0.));
#519=DIRECTION('ref_axis',(-4.36809058868914E-16,1.,0.));
#520=DIRECTION('',(-4.36809058868914E-16,1.,0.));
#521=DIRECTION('',(0.,0.,1.));
#522=DIRECTION('center_axis',(2.22044604925031E-16,-1.,0.));
#523=DIRECTION('ref_axis',(1.,2.22044604925031E-16,0.));
#524=DIRECTION('',(1.,2.22044604925031E-16,0.));
#525=DIRECTION('',(0.,0.,1.));
#526=DIRECTION('center_axis',(-1.,-3.27606794151686E-16,0.));
#527=DIRECTION('ref_axis',(3.27606794151686E-16,-1.,0.));
#528=DIRECTION('',(3.27606794151686E-16,-1.,0.));
#529=DIRECTION('center_axis',(0.,0.,1.));
#530=DIRECTION('ref_axis',(1.,0.,0.));
#531=CARTESIAN_POINT('',(0.,0.,0.));
#532=CARTESIAN_POINT('Origin',(-11.,20.,75.6372923894027));
#533=CARTESIAN_POINT('',(-10.2165,20.,0.));
#534=CARTESIAN_POINT('Origin',(-11.,20.,0.));
#535=CARTESIAN_POINT('',(-10.2165,20.,5.));
#536=CARTESIAN_POINT('',(-10.2165,20.,75.6372923894027));
#537=CARTESIAN_POINT('Origin',(-11.,20.,5.));
#538=CARTESIAN_POINT('Origin',(-11.,-20.,75.6372923894027));
#539=CARTESIAN_POINT('',(-10.2165,-20.,0.));
#540=CARTESIAN_POINT('Origin',(-11.,-20.,0.));
#541=CARTESIAN_POINT('',(-10.2165,-20.,5.));
#542=CARTESIAN_POINT('',(-10.2165,-20.,75.6372923894027));
#543=CARTESIAN_POINT('Origin',(-11.,-20.,5.));
#544=CARTESIAN_POINT('Origin',(11.,-20.,75.6372923894027));
#545=CARTESIAN_POINT('',(11.7835,-20.,0.));
#546=CARTESIAN_POINT('Origin',(11.,-20.,0.));
#547=CARTESIAN_POINT('',(11.7835,-20.,5.));
#548=CARTESIAN_POINT('',(11.7835,-20.,75.6372923894027));
#549=CARTESIAN_POINT('Origin',(11.,-20.,5.));
#550=CARTESIAN_POINT('Origin',(11.,20.,75.6372923894027));
#551=CARTESIAN_POINT('',(11.7835,20.,0.));
#552=CARTESIAN_POINT('Origin',(11.,20.,0.));
#553=CARTESIAN_POINT('',(11.7835,20.,5.));
#554=CARTESIAN_POINT('',(11.7835,20.,75.6372923894027));
#555=CARTESIAN_POINT('Origin',(11.,20.,5.));
#556=CARTESIAN_POINT('Origin',(10.,-42.6372923894027,-10.2710588667741));
#557=CARTESIAN_POINT('',(8.29999999999999,33.,-10.2710588667741));
#558=CARTESIAN_POINT('Origin',(9.99999999999999,33.,-10.2710588667741));
#559=CARTESIAN_POINT('',(8.29999999999999,30.,-10.2710588667741));
#560=CARTESIAN_POINT('',(8.3,-42.6372923894027,-10.2710588667741));
#561=CARTESIAN_POINT('Origin',(9.99999999999999,30.,-10.2710588667741));
#562=CARTESIAN_POINT('Origin',(-10.,-42.6372923894027,-10.));
#563=CARTESIAN_POINT('',(-11.7,33.,-10.));
#564=CARTESIAN_POINT('Origin',(-10.,33.,-10.));
#565=CARTESIAN_POINT('',(-11.7,30.,-10.));
#566=CARTESIAN_POINT('',(-11.7,-42.6372923894027,-10.));
#567=CARTESIAN_POINT('Origin',(-10.,30.,-10.));
#568=CARTESIAN_POINT('Origin',(20.,30.,-2.08166817117217E-16));
#569=CARTESIAN_POINT('',(-20.,30.,-2.08166817117217E-16));
#570=CARTESIAN_POINT('',(20.,30.,-2.08166817117217E-16));
#571=CARTESIAN_POINT('',(9.99999999999999,30.,-2.08166817117217E-16));
#572=CARTESIAN_POINT('',(-20.,30.,-15.));
#573=CARTESIAN_POINT('',(-20.,30.,-2.08166817117217E-16));
#574=CARTESIAN_POINT('',(20.,30.,-15.));
#575=CARTESIAN_POINT('',(20.,30.,-15.));
#576=CARTESIAN_POINT('',(20.,30.,-2.08166817117217E-16));
#577=CARTESIAN_POINT('Origin',(-8.88178419700125E-15,31.5,-15.));
#578=CARTESIAN_POINT('',(20.,33.,-15.));
#579=CARTESIAN_POINT('',(20.,33.,-15.));
#580=CARTESIAN_POINT('',(-20.,33.,-15.));
#581=CARTESIAN_POINT('',(-20.,-28.,-15.));
#582=CARTESIAN_POINT('',(-20.,33.,-15.));
#583=CARTESIAN_POINT('Origin',(2.22044604925031E-15,2.5,-2.08166817117217E-16));
#584=CARTESIAN_POINT('',(20.,-28.,-2.08166817117217E-16));
#585=CARTESIAN_POINT('',(20.,-28.,-2.08166817117217E-16));
#586=CARTESIAN_POINT('',(-20.,-28.,-2.08166817117217E-16));
#587=CARTESIAN_POINT('',(-20.,-28.,-2.08166817117217E-16));
#588=CARTESIAN_POINT('',(-20.,33.,-2.08166817117217E-16));
#589=CARTESIAN_POINT('',(-15.525000787208,15.275001740639,-2.08166817117217E-16));
#590=CARTESIAN_POINT('',(-15.525000787208,-15.274998259361,-2.08166817117217E-16));
#591=CARTESIAN_POINT('',(-15.525000787208,8.8875008703195,-2.08166817117217E-16));
#592=CARTESIAN_POINT('',(15.474999212792,-15.274998259361,-2.08166817117217E-16));
#593=CARTESIAN_POINT('',(-7.762500393604,-15.274998259361,-2.08166817117217E-16));
#594=CARTESIAN_POINT('',(15.474999212792,15.275001740639,-2.08166817117217E-16));
#595=CARTESIAN_POINT('',(15.474999212792,-6.3874991296805,-2.08166817117217E-16));
#596=CARTESIAN_POINT('',(7.737499606396,15.275001740639,-2.08166817117217E-16));
#597=CARTESIAN_POINT('Origin',(-15.525000787208,15.275001740639,-2.08166817117217E-16));
#598=CARTESIAN_POINT('',(-15.525000787208,15.275001740639,3.));
#599=CARTESIAN_POINT('',(-15.525000787208,15.275001740639,-2.08166817117217E-16));
#600=CARTESIAN_POINT('',(-15.525000787208,-15.274998259361,3.));
#601=CARTESIAN_POINT('',(-15.525000787208,-15.274998259361,3.));
#602=CARTESIAN_POINT('',(-15.525000787208,-15.274998259361,-2.08166817117217E-16));
#603=CARTESIAN_POINT('Origin',(15.474999212792,15.275001740639,-2.08166817117217E-16));
#604=CARTESIAN_POINT('',(15.474999212792,15.275001740639,3.));
#605=CARTESIAN_POINT('',(15.474999212792,15.275001740639,-2.08166817117217E-16));
#606=CARTESIAN_POINT('',(-15.525000787208,15.275001740639,3.));
#607=CARTESIAN_POINT('Origin',(15.474999212792,-15.274998259361,-2.08166817117217E-16));
#608=CARTESIAN_POINT('',(15.474999212792,-15.274998259361,3.));
#609=CARTESIAN_POINT('',(15.474999212792,-15.274998259361,-2.08166817117217E-16));
#610=CARTESIAN_POINT('',(15.474999212792,15.275001740639,3.));
#611=CARTESIAN_POINT('Origin',(-15.525000787208,-15.274998259361,-2.08166817117217E-16));
#612=CARTESIAN_POINT('',(15.474999212792,-15.274998259361,3.));
#613=CARTESIAN_POINT('Origin',(-0.0250007872080027,1.74063900182375E-6,
3.));
#614=CARTESIAN_POINT('Origin',(20.,33.,-2.08166817117217E-16));
#615=CARTESIAN_POINT('',(-20.,33.,5.));
#616=CARTESIAN_POINT('',(-20.,33.,-2.08166817117217E-16));
#617=CARTESIAN_POINT('',(20.,33.,5.));
#618=CARTESIAN_POINT('',(20.,33.,5.));
#619=CARTESIAN_POINT('',(20.,33.,-2.08166817117217E-16));
#620=CARTESIAN_POINT('Origin',(20.,-28.,-2.08166817117217E-16));
#621=CARTESIAN_POINT('',(20.,-28.,5.));
#622=CARTESIAN_POINT('',(20.,-28.,5.));
#623=CARTESIAN_POINT('',(20.,-28.,-2.08166817117217E-16));
#624=CARTESIAN_POINT('Origin',(-20.,-28.,-2.08166817117217E-16));
#625=CARTESIAN_POINT('',(-20.,-28.,5.));
#626=CARTESIAN_POINT('',(-20.,-28.,5.));
#627=CARTESIAN_POINT('',(-20.,-28.,-2.08166817117217E-16));
#628=CARTESIAN_POINT('Origin',(-20.,33.,-2.08166817117217E-16));
#629=CARTESIAN_POINT('',(-20.,33.,5.));
#630=CARTESIAN_POINT('Origin',(0.,2.5,5.));
#631=UNCERTAINTY_MEASURE_WITH_UNIT(LENGTH_MEASURE(0.01),#635,
'DISTANCE_ACCURACY_VALUE',
'Maximum model space distance between geometric entities at asserted c
onnectivities');
#632=UNCERTAINTY_MEASURE_WITH_UNIT(LENGTH_MEASURE(0.01),#635,
'DISTANCE_ACCURACY_VALUE',
'Maximum model space distance between geometric entities at asserted c
onnectivities');
#633=(
GEOMETRIC_REPRESENTATION_CONTEXT(3)
GLOBAL_UNCERTAINTY_ASSIGNED_CONTEXT((#631))
GLOBAL_UNIT_ASSIGNED_CONTEXT((#635,#637,#638))
REPRESENTATION_CONTEXT('','3D')
);
#634=(
GEOMETRIC_REPRESENTATION_CONTEXT(3)
GLOBAL_UNCERTAINTY_ASSIGNED_CONTEXT((#632))
GLOBAL_UNIT_ASSIGNED_CONTEXT((#635,#637,#638))
REPRESENTATION_CONTEXT('','3D')
);
#635=(
LENGTH_UNIT()
NAMED_UNIT(*)
SI_UNIT(.MILLI.,.METRE.)
);
#636=(
LENGTH_UNIT()
NAMED_UNIT(*)
SI_UNIT(.CENTI.,.METRE.)
);
#637=(
NAMED_UNIT(*)
PLANE_ANGLE_UNIT()
SI_UNIT($,.RADIAN.)
);
#638=(
NAMED_UNIT(*)
SI_UNIT($,.STERADIAN.)
SOLID_ANGLE_UNIT()
);
#639=SHAPE_DEFINITION_REPRESENTATION(#640,#641);
#640=PRODUCT_DEFINITION_SHAPE('',$,#643);
#641=SHAPE_REPRESENTATION('',(#399),#633);
#642=PRODUCT_DEFINITION_CONTEXT('part definition',#647,'design');
#643=PRODUCT_DEFINITION('Support','Support',#644,#642);
#644=PRODUCT_DEFINITION_FORMATION('',$,#649);
#645=PRODUCT_RELATED_PRODUCT_CATEGORY('Support','Support',(#649));
#646=APPLICATION_PROTOCOL_DEFINITION('international standard',
'automotive_design',2009,#647);
#647=APPLICATION_CONTEXT(
'Core Data for Automotive Mechanical Design Process');
#648=PRODUCT_CONTEXT('part definition',#647,'mechanical');
#649=PRODUCT('Support','Support',$,(#648));
#650=PRESENTATION_STYLE_ASSIGNMENT((#651));
#651=SURFACE_STYLE_USAGE(.BOTH.,#654);
#652=SURFACE_STYLE_RENDERING_WITH_PROPERTIES($,#658,(#653));
#653=SURFACE_STYLE_TRANSPARENT(0.);
#654=SURFACE_SIDE_STYLE('',(#655,#652));
#655=SURFACE_STYLE_FILL_AREA(#656);
#656=FILL_AREA_STYLE('',(#657));
#657=FILL_AREA_STYLE_COLOUR('',#658);
#658=COLOUR_RGB('',0.749019607843137,0.749019607843137,0.749019607843137);
ENDSEC;
END-ISO-10303-21;
