M48
;Layer_Color=9474304
;FILE_FORMAT=4:4
METRIC,LZ
;TYPE=PLATED
T01F00S00C0.3000
T02F00S00C0.3683
T03F00S00C0.7000
T04F00S00C1.7780
T05F00S00C2.4000
T06F00S00C2.8000
%
T01
X00005Y-0007
Y-0006
Y-0005
Y-0004
Y-0003
Y-0002
Y-0001
Y0
Y0001
Y0002
Y0003
Y0004
Y0005
Y0006
Y0007
Y0008
Y0009
X0002Y0006
X0004
Y0002
X0003Y0002
X0002Y0002
X0003Y0
X0005
X0006Y0
X0007Y0
X0008Y0
X0009Y0
X0008Y-0002
X0006
X0004
X0004Y-00034
X00032Y-00036
X00027Y-00042
X00024Y-0005
X00026Y-00058
X00032Y-00063
X0004Y-00066
X00048Y-00064
X00054Y-00058
X00056Y-0005
X00054Y-00042
X00049Y-00036
X0007Y-0004
X0009
X0008Y-0006
X0002Y-0002
X0005Y0001
X001Y0
X0011Y0
X0012Y0
X0013Y0
X0014Y0
X0015Y0
X0016Y0
X0017Y0
X0018Y0
X0019Y0
X002Y0
X0021Y0
X0022Y0
X0023Y0
X0024Y0
X0025Y0
X0026Y0
X0027Y0
X0028Y0001
X0028Y0002
X0028Y0003
X0027Y0004
X0029
X00296Y0005
Y0006
Y0007
Y0008
Y0009
X0029Y0
X0028Y-0002
X0026
X0026Y-00034
X00251Y-00036
X00246Y-00042
X00244Y-0005
X00246Y-00058
X00252Y-00064
X0026Y-00066
X00268Y-00064
X00274Y-00058
X00276Y-0005
X00274Y-00042
X00269Y-00036
X0029Y-0004
X0023
X0021
X0019
X0017
X0015
X0013
X0011
X0012Y-0002
X0014
X0016
X0018
X002
X0022
X0024
X0023Y0001
X0021Y0004
X0022Y0006
X002
X0016
X0014
X0012
X0015Y0004
X0016Y-0006
X0018
X002
X0022
X0014
X0012
X001
Y-0002
Y001
X0012
X0014
Y0014
X0014Y0015
X0013
X0012
X0012Y0014
X0013Y0014
X0011
Y0015
X001
X001Y0014
X001Y0016
X0011Y0016
X0012Y0016
X0013Y0016
X0014Y0016
X0015Y0015
X0011Y0012
X001Y0018
X0011Y002
X0017
X0019
X0021
X002Y0018
X0021Y0024
X0023
X0024Y0022
X0027Y002
X00296Y002
Y0021
Y0022
Y0023
Y0024
Y0025
X0029Y0026
X0028Y0026
X0028Y0027
Y0028
Y0029
X0028Y003
X0027Y003
X0026Y003
X0025Y003
X0024Y003
X0024Y0029
X0023
X0023Y0028
X0023Y003
X0022Y003
X0021Y003
X002Y003
X0019Y003
X0018Y003
X0017Y003
X0016Y003
X0015Y003
X0014Y003
X0013Y003
X0012Y003
X0011Y003
X001Y003
X0011Y0032
X0013
X0015
X0017
X0019
X0021
X0023
X0025
X00251Y00337
X00246Y00343
X00244Y00351
X00246Y00358
X00252Y00364
X0026Y00366
X00268Y00364
X00274Y00358
X00276Y0035
X00274Y00343
X00269Y00337
X0026Y00334
X0027Y0032
X0029
Y0036
X0023
X0021
X0019
X0017
X0015
X0013
X0011
X0012Y0034
X0014
X0016
X0018
X002
X0022
X002Y0026
X0019Y0024
X0017
X0015
X0016Y0026
X001Y0034
X0029Y0028
X00296Y0019
Y0018
Y0017
Y0016
X0029Y0016
X00296Y0015
Y0014
Y0013
Y0012
Y0011
Y001
X0024Y001
X0022
X002
X0006
X0004
X0002
X00005Y001
Y0011
Y0012
Y0013
Y0014
Y0015
Y0016
Y0017
Y0018
Y0019
Y002
Y0021
Y0022
Y0023
Y0024
Y0025
Y0026
Y0027
Y0028
Y0029
Y003
Y0031
Y0032
Y0033
Y0034
Y0035
Y0036
Y0037
X00031Y00363
X00026Y00358
X00024Y0035
X00026Y00342
X00031Y00337
X0004Y00334
X00049Y00337
X00054Y00342
X00056Y0035
X00054Y00357
X00049Y00363
X0004Y00366
X0007Y0036
X0009
X0008Y0034
X0009Y0032
X0007
X0005
X0003
X0004Y003
X0006
X0007Y003
X0008Y003
X0009Y003
X0005Y0029
X0004Y0028
X0003Y0028
X0002Y0028
X0002Y003
X0007Y0024
X0009
Y002
X0007
X0005
X0006Y0018
X0006Y0016
Y0015
X0006Y0014
X0007Y0014
Y0015
X0008
X0008Y0014
X0009Y0014
Y0015
X0009Y0016
X0008Y0016
X0007Y0016
X0005
X0005Y0015
X0004
X0004Y0014
X0005Y0014
X0005Y0012
X0003Y0014
Y0015
X0002
X0002Y0014
X0002Y0016
X0003Y0016
X0004Y0016
T02
X0002492Y00070475
Y00076825
Y00083175
Y00089525
X0003508Y000927
Y0008635
Y0008
Y0007365
Y000673
X0007492Y00070475
Y00076825
Y00083175
Y00089525
X0008508Y000927
Y0008635
Y0008
Y0007365
Y000673
X0012492Y00070475
Y00076825
Y00083175
Y00089525
X0013508Y000927
Y0008635
Y0008
Y0007365
Y000673
X0017492Y00070475
Y00076825
Y00083175
Y00089525
X0018508Y000927
Y0008635
Y0008
Y0007365
Y000673
Y002073
Y0021365
Y0022
Y0022635
Y002327
X0017492Y00229525
Y00223175
Y00216825
Y00210475
X0013508Y002073
Y0021365
Y0022
Y0022635
Y002327
X0012492Y00229525
Y00223175
Y00216825
Y00210475
X0008508Y002073
Y0021365
Y0022
Y0022635
Y002327
X0007492Y00229525
Y00223175
Y00216825
Y00210475
X0003508Y002073
Y0021365
Y0022
Y0022635
Y002327
X0002492Y00229525
Y00223175
Y00216825
Y00210475
T03
X0025Y000738
Y000865
X00261Y000928
Y000801
Y001055
Y001182
Y001309
Y001436
Y001564
Y001691
Y001818
Y001945
Y002072
Y002199
X0025Y002262
Y002135
Y002008
Y001881
Y001754
Y001627
Y0015
Y001373
Y001246
Y001119
Y000992
T04
X0003Y0004571
X0008
X0013
X0018
Y0011429
X0013
Y0018571
X0018
Y0025429
X0013
X0008
X0003
Y0018571
X0008
Y0011429
X0003
T05
X0004Y-0005
X0026
Y0035
X0004
T06
X002555Y0002725
Y0027275
M30
